<svg xmlns="http://www.w3.org/2000/svg" width="658.171" height="355" viewBox="0 0 658.171 355">
  <g id="Group_14" data-name="Group 14" transform="translate(-569.829 -343)">
    <text id="T" transform="translate(719 609)" fill="#3f1757" font-size="253" font-family="Poppins-MediumItalic, Poppins" font-weight="500" font-style="italic"><tspan x="-142.692" y="0">T</tspan></text>
    <text id="i" transform="translate(746 609)" fill="#3f1757" font-size="181" font-family="Poppins-MediumItalic, Poppins" font-weight="500" font-style="italic"><tspan x="-47.784" y="0">i</tspan></text>
    <g id="Group_3" data-name="Group 3" transform="translate(465 284.396)">
      <path id="Path_1" data-name="Path 1" d="M2694.356,633.154s-24.955-10.989-38.487,3.417-19.823,48.442,2.878,71.579,50.357,6.834,67.263-11.87,53.072-59.912,60.711-65.914,15.5-5.566,19.208,0,0,88.536,0,88.536" transform="translate(-2342 -401.525)" fill="none" stroke="#f01515" stroke-linecap="round" stroke-width="14"/>
      <path id="Path_2" data-name="Path 2" d="M2687.919,800.5h-28.845" transform="translate(-2224.073 -523.369)" fill="none" stroke="#f01515" stroke-linecap="round" stroke-width="12"/>
    </g>
    <text id="r" transform="translate(1029 608)" fill="#3f1757" font-size="200" font-family="Poppins-MediumItalic, Poppins" font-weight="500" font-style="italic"><tspan x="-76.8" y="0">r</tspan></text>
    <text id="e" transform="translate(1151 608)" fill="#3f1757" font-size="200" font-family="Poppins-MediumItalic, Poppins" font-weight="500" font-style="italic"><tspan x="-123.4" y="0">e</tspan></text>
    <text id="t-2" data-name="t" transform="translate(1225 616)" fill="#3f1757" font-size="200" font-family="Poppins-MediumItalic, Poppins" font-weight="500" font-style="italic"><tspan x="-74.4" y="0">t</tspan></text>
    <circle id="Ellipse_7" data-name="Ellipse 7" cx="11" cy="11" r="11" transform="translate(569.829 611.712) rotate(-9)" fill="#a7512d"/>
    <circle id="Ellipse_6" data-name="Ellipse 6" cx="11" cy="11" r="11" transform="translate(595 630) rotate(-9)" fill="#a7512d"/>
  </g>
</svg>