<svg xmlns="http://www.w3.org/2000/svg" width="663.982" height="917.996" viewBox="0 0 663.982 917.996">
  <g id="Subtraction_18" data-name="Subtraction 18" transform="translate(13619 535)" fill="#fff">
    <path d="M -12955.517578125 382.4959411621094 L -12972.6572265625 382.4949035644531 C -12973.3115234375 376.6151428222656 -12976.0693359375 371.1868896484375 -12980.4560546875 367.1663208007813 C -12984.9833984375 363.0155334472656 -12990.861328125 360.7296447753906 -12997.0068359375 360.7296447753906 C -13003.15234375 360.7296447753906 -13009.0302734375 363.0155334472656 -13013.55859375 367.1663208007813 C -13017.9443359375 371.1874389648438 -13020.7021484375 376.61572265625 -13021.35546875 382.4949951171875 L -13055.658203125 382.494873046875 C -13056.3125 376.6158447265625 -13059.0703125 371.1876525878906 -13063.4560546875 367.1663208007813 C -13067.984375 363.0155334472656 -13073.8623046875 360.7296447753906 -13080.0078125 360.7296447753906 C -13086.1533203125 360.7296447753906 -13092.03125 363.0155334472656 -13096.55859375 367.1663208007813 C -13100.9453125 371.1875610351563 -13103.703125 376.6157531738281 -13104.3564453125 382.4949951171875 L -13138.658203125 382.494873046875 C -13139.3125 376.6160583496094 -13142.0703125 371.1878662109375 -13146.45703125 367.1663208007813 C -13150.9853515625 363.0155334472656 -13156.86328125 360.7296447753906 -13163.0087890625 360.7296447753906 C -13169.1533203125 360.7296447753906 -13175.03125 363.0155334472656 -13179.5595703125 367.1663208007813 C -13183.9462890625 371.1875610351563 -13186.7041015625 376.6157531738281 -13187.357421875 382.4949951171875 L -13221.66015625 382.494873046875 C -13222.3134765625 376.6161499023438 -13225.0712890625 371.18798828125 -13229.4580078125 367.1663208007813 C -13233.986328125 363.0155334472656 -13239.8642578125 360.7296447753906 -13246.0087890625 360.7296447753906 C -13252.154296875 360.7296447753906 -13258.03125 363.0155334472656 -13262.55859375 367.1663208007813 C -13266.9443359375 371.1867980957031 -13269.701171875 376.6150207519531 -13270.35546875 382.4949951171875 L -13279.0087890625 382.494873046875 L -13304.6611328125 382.494873046875 C -13305.314453125 376.6156311035156 -13308.0712890625 371.1874389648438 -13312.45703125 367.1663208007813 C -13316.984375 363.0155334472656 -13322.861328125 360.7296447753906 -13329.0068359375 360.7296447753906 C -13335.1513671875 360.7296447753906 -13341.029296875 363.0155334472656 -13345.5576171875 367.1663208007813 C -13349.9443359375 371.1876525878906 -13352.7021484375 376.6159362792969 -13353.3564453125 382.4949951171875 L -13387.6572265625 382.494873046875 C -13388.3115234375 376.6162414550781 -13391.0693359375 371.1880798339844 -13395.4560546875 367.1663208007813 C -13399.984375 363.0155334472656 -13405.8623046875 360.7296447753906 -13412.0068359375 360.7296447753906 C -13418.15234375 360.7296447753906 -13424.0302734375 363.0155334472656 -13428.55859375 367.1663208007813 C -13432.9453125 371.1876525878906 -13435.703125 376.6158447265625 -13436.3564453125 382.4949951171875 L -13470.658203125 382.494873046875 C -13471.3125 376.6158447265625 -13474.0703125 371.1876525878906 -13478.4560546875 367.1663208007813 C -13482.984375 363.0155334472656 -13488.8623046875 360.7296447753906 -13495.0078125 360.7296447753906 C -13501.1533203125 360.7296447753906 -13507.03125 363.0155334472656 -13511.5595703125 367.1663208007813 C -13515.9462890625 371.1879577636719 -13518.7041015625 376.6167907714844 -13519.357421875 382.4949951171875 L -13553.6591796875 382.494873046875 C -13554.3125 376.6170959472656 -13557.0703125 371.1883850097656 -13561.45703125 367.1663208007813 C -13565.9853515625 363.0155334472656 -13571.86328125 360.7296447753906 -13578.0087890625 360.7296447753906 C -13584.154296875 360.7296447753906 -13590.0322265625 363.0155334472656 -13594.5595703125 367.1663208007813 C -13598.9462890625 371.1874389648438 -13601.7041015625 376.6156311035156 -13602.357421875 382.4949951171875 L -13618.5 382.494873046875 L -13618.5 -534.4998168945313 L -13601.939453125 -534.4998168945313 C -13599.494140625 -523.3304443359375 -13589.4951171875 -515.2671508789063 -13578.0087890625 -515.2671508789063 C -13566.5224609375 -515.2671508789063 -13556.5234375 -523.33056640625 -13554.0771484375 -534.4998779296875 L -13518.939453125 -534.4998168945313 C -13516.4931640625 -523.3304443359375 -13506.494140625 -515.2671508789063 -13495.0078125 -515.2671508789063 C -13483.521484375 -515.2671508789063 -13473.5224609375 -523.33056640625 -13471.0771484375 -534.4998779296875 L -13435.939453125 -534.4998168945313 C -13433.4921875 -523.3304443359375 -13423.4931640625 -515.2671508789063 -13412.0068359375 -515.2671508789063 C -13400.5244140625 -515.2671508789063 -13390.525390625 -523.33056640625 -13388.076171875 -534.4998779296875 L -13352.9375 -534.4998168945313 C -13350.4912109375 -523.3304443359375 -13340.494140625 -515.2671508789063 -13329.009765625 -515.2671508789063 C -13317.5234375 -515.2671508789063 -13307.5244140625 -523.33056640625 -13305.078125 -534.4998779296875 L -13279.0087890625 -534.4998168945313 L -13269.9404296875 -534.4998168945313 C -13267.494140625 -523.3304443359375 -13257.4951171875 -515.2671508789063 -13246.0087890625 -515.2671508789063 C -13234.5234375 -515.2671508789063 -13224.5244140625 -523.33056640625 -13222.0771484375 -534.4998779296875 L -13186.939453125 -534.4998168945313 C -13184.4931640625 -523.3304443359375 -13174.494140625 -515.2671508789063 -13163.0087890625 -515.2671508789063 C -13151.5224609375 -515.2671508789063 -13141.5234375 -523.33056640625 -13139.0771484375 -534.4998779296875 L -13103.939453125 -534.4998168945313 C -13101.4931640625 -523.3304443359375 -13091.494140625 -515.2671508789063 -13080.0078125 -515.2671508789063 C -13068.5224609375 -515.2671508789063 -13058.5224609375 -523.33056640625 -13056.0732421875 -534.4998779296875 L -13020.9384765625 -534.4998168945313 C -13018.4921875 -523.3304443359375 -13008.4951171875 -515.2671508789063 -12997.0107421875 -515.2671508789063 C -12985.5244140625 -515.2671508789063 -12975.525390625 -523.33056640625 -12973.0791015625 -534.4998779296875 L -12955.517578125 -534.4998168945313 L -12955.517578125 382.4959411621094 Z" stroke="none"/>
    <path d="M -12956.017578125 381.9959106445313 L -12956.017578125 -533.999755859375 L -12972.6806640625 -533.9998779296875 C -12975.322265625 -522.8069458007813 -12985.4248046875 -514.7672119140625 -12997.0107421875 -514.7672119140625 C -13008.59375 -514.7672119140625 -13018.6953125 -522.8069458007813 -13021.3369140625 -533.999755859375 L -13055.673828125 -533.9998779296875 C -13058.3203125 -522.8070678710938 -13068.423828125 -514.7672119140625 -13080.0078125 -514.7672119140625 C -13091.59375 -514.7672119140625 -13101.6962890625 -522.8069458007813 -13104.337890625 -533.999755859375 L -13138.6787109375 -533.9998779296875 C -13141.3212890625 -522.8069458007813 -13151.4228515625 -514.7672119140625 -13163.0087890625 -514.7672119140625 C -13174.59375 -514.7672119140625 -13184.6953125 -522.8068237304688 -13187.3388671875 -533.999755859375 L -13221.6787109375 -533.9998779296875 C -13224.322265625 -522.8069458007813 -13234.423828125 -514.7672119140625 -13246.0087890625 -514.7672119140625 C -13257.59375 -514.7672119140625 -13267.6962890625 -522.8068237304688 -13270.33984375 -533.999755859375 L -13279.0087890625 -533.999755859375 L -13304.6796875 -533.9998779296875 C -13307.322265625 -522.8069458007813 -13317.423828125 -514.7672119140625 -13329.009765625 -514.7672119140625 C -13340.5927734375 -514.7672119140625 -13350.693359375 -522.8068237304688 -13353.3369140625 -533.999755859375 L -13387.6767578125 -533.9998779296875 C -13390.3232421875 -522.8070678710938 -13400.4248046875 -514.7672119140625 -13412.0068359375 -514.7672119140625 C -13423.591796875 -514.7672119140625 -13433.6953125 -522.8069458007813 -13436.337890625 -533.999755859375 L -13470.677734375 -533.9998779296875 C -13473.3193359375 -522.8069458007813 -13483.421875 -514.7672119140625 -13495.0078125 -514.7672119140625 C -13506.59375 -514.7672119140625 -13516.6962890625 -522.8069458007813 -13519.337890625 -533.999755859375 L -13553.6787109375 -533.9998779296875 C -13556.3212890625 -522.8069458007813 -13566.4228515625 -514.7672119140625 -13578.0087890625 -514.7672119140625 C -13589.5947265625 -514.7672119140625 -13599.697265625 -522.8069458007813 -13602.3388671875 -533.999755859375 L -13618 -533.999755859375 L -13618 381.9948120117188 L -13602.8017578125 381.9949340820313 C -13602.0478515625 376.1668395996094 -13599.2626953125 370.799072265625 -13594.8974609375 366.7977600097656 C -13590.2783203125 362.5622253417969 -13584.2802734375 360.2296447753906 -13578.0087890625 360.2296447753906 C -13571.7373046875 360.2296447753906 -13565.7392578125 362.5622253417969 -13561.119140625 366.7977600097656 C -13556.75390625 370.80029296875 -13553.96875 376.1678466796875 -13553.2158203125 381.9948120117188 L -13519.80078125 381.9949340820313 C -13519.0478515625 376.1676635742188 -13516.2626953125 370.8000793457031 -13511.8974609375 366.7976379394531 C -13507.27734375 362.5622253417969 -13501.2783203125 360.2296447753906 -13495.0078125 360.2296447753906 C -13488.736328125 360.2296447753906 -13482.73828125 362.5622253417969 -13478.1181640625 366.7977600097656 C -13473.75390625 370.7992858886719 -13470.9697265625 376.1669616699219 -13470.21484375 381.9948120117188 L -13436.80078125 381.9949340820313 C -13436.0458984375 376.1669616699219 -13433.26171875 370.7991943359375 -13428.896484375 366.7976379394531 C -13424.2763671875 362.5622253417969 -13418.2783203125 360.2296447753906 -13412.0068359375 360.2296447753906 C -13405.736328125 360.2296447753906 -13399.73828125 362.5622253417969 -13395.1181640625 366.7977600097656 C -13390.7529296875 370.7996215820313 -13387.96875 376.1672668457031 -13387.2138671875 381.9948120117188 L -13353.7998046875 381.9949340820313 C -13353.044921875 376.1670532226563 -13350.2607421875 370.7994079589844 -13345.8955078125 366.7976379394531 C -13341.275390625 362.5622253417969 -13335.27734375 360.2296447753906 -13329.0068359375 360.2296447753906 C -13322.736328125 360.2296447753906 -13316.73828125 362.5622253417969 -13312.119140625 366.7977600097656 C -13307.7548828125 370.7989501953125 -13304.970703125 376.166748046875 -13304.216796875 381.9948120117188 L -13279.0087890625 381.9948120117188 L -13270.798828125 381.9949035644531 C -13270.044921875 376.1663513183594 -13267.2607421875 370.7985229492188 -13262.896484375 366.7977600097656 C -13258.27734375 362.5622253417969 -13252.279296875 360.2296447753906 -13246.0087890625 360.2296447753906 C -13239.73828125 360.2296447753906 -13233.740234375 362.5622253417969 -13229.1201171875 366.7977600097656 C -13224.7548828125 370.7997436523438 -13221.970703125 376.1674499511719 -13221.2158203125 381.9948120117188 L -13187.8017578125 381.9949340820313 C -13187.046875 376.1671447753906 -13184.2626953125 370.7994079589844 -13179.8974609375 366.7976379394531 C -13175.27734375 362.5622253417969 -13169.279296875 360.2296447753906 -13163.0087890625 360.2296447753906 C -13156.7373046875 360.2296447753906 -13150.7392578125 362.5622253417969 -13146.119140625 366.7977600097656 C -13141.75390625 370.7996215820313 -13138.9697265625 376.1672668457031 -13138.21484375 381.9948120117188 L -13104.80078125 381.9949340820313 C -13104.0458984375 376.166748046875 -13101.26171875 370.7989501953125 -13096.896484375 366.7977600097656 C -13092.27734375 362.5622253417969 -13086.279296875 360.2296447753906 -13080.0078125 360.2296447753906 C -13073.736328125 360.2296447753906 -13067.73828125 362.5622253417969 -13063.1181640625 366.7977600097656 C -13058.75390625 370.7992858886719 -13055.9697265625 376.1669616699219 -13055.21484375 381.9948120117188 L -13021.7998046875 381.9949340820313 C -13021.044921875 376.166748046875 -13018.2607421875 370.7989501953125 -13013.896484375 366.7976379394531 C -13009.2763671875 362.5622253417969 -13003.2783203125 360.2296447753906 -12997.0068359375 360.2296447753906 C -12990.7353515625 360.2296447753906 -12984.7373046875 362.5622253417969 -12980.1181640625 366.7976379394531 C -12975.7529296875 370.7985229492188 -12972.96875 376.1663818359375 -12972.2138671875 381.994873046875 L -12956.017578125 381.9959106445313 M -12955.017578125 382.9959716796875 L -12955.0185546875 382.9959716796875 L -12973.109375 382.9948120117188 C -12973.6572265625 377.0653991699219 -12976.3857421875 371.5751647949219 -12980.7939453125 367.5348205566406 C -12985.228515625 363.4688110351563 -12990.986328125 361.2296447753906 -12997.0068359375 361.2296447753906 C -13003.02734375 361.2296447753906 -13008.78515625 363.4688110351563 -13013.220703125 367.5348205566406 C -13017.6279296875 371.5752868652344 -13020.3564453125 377.0658569335938 -13020.904296875 382.9949340820313 L -13056.1103515625 382.9948120117188 C -13056.658203125 377.0656433105469 -13059.38671875 371.5755004882813 -13063.7939453125 367.5348205566406 C -13068.2294921875 363.4688110351563 -13073.9873046875 361.2296447753906 -13080.0078125 361.2296447753906 C -13086.0283203125 361.2296447753906 -13091.7861328125 363.4688110351563 -13096.220703125 367.5348205566406 C -13100.6279296875 371.5746765136719 -13103.357421875 377.0652770996094 -13103.9052734375 382.9949340820313 L -13139.1103515625 382.9948120117188 C -13139.658203125 377.0663452148438 -13142.38671875 371.5762329101563 -13146.794921875 367.5348205566406 C -13151.23046875 363.4688110351563 -13156.98828125 361.2296447753906 -13163.0087890625 361.2296447753906 C -13169.0283203125 361.2296447753906 -13174.7861328125 363.4688110351563 -13179.2216796875 367.5348205566406 C -13183.6298828125 371.5758666992188 -13186.3583984375 377.0663452148438 -13186.90625 382.9949340820313 L -13222.111328125 382.9948120117188 C -13222.6591796875 377.0663452148438 -13225.3876953125 371.5762329101563 -13229.7958984375 367.5348205566406 C -13234.2314453125 363.4688110351563 -13239.9892578125 361.2296447753906 -13246.0087890625 361.2296447753906 C -13252.029296875 361.2296447753906 -13257.7861328125 363.4688110351563 -13262.220703125 367.5348205566406 C -13266.626953125 371.5743408203125 -13269.35546875 377.0648193359375 -13269.9033203125 382.9949340820313 L -13279.0087890625 382.9948120117188 L -13305.1123046875 382.9948120117188 C -13305.66015625 377.06494140625 -13308.388671875 371.5747985839844 -13312.794921875 367.5348205566406 C -13317.2294921875 363.4688110351563 -13322.986328125 361.2296447753906 -13329.0068359375 361.2296447753906 C -13335.0263671875 361.2296447753906 -13340.7841796875 363.4688110351563 -13345.2197265625 367.5348205566406 C -13349.6279296875 371.5759887695313 -13352.3564453125 377.0664672851563 -13352.904296875 382.9949340820313 L -13388.109375 382.9948120117188 C -13388.6572265625 377.0663452148438 -13391.3857421875 371.5762329101563 -13395.7939453125 367.5348205566406 C -13400.2294921875 363.4688110351563 -13405.9873046875 361.2296447753906 -13412.0068359375 361.2296447753906 C -13418.02734375 361.2296447753906 -13423.78515625 363.4688110351563 -13428.220703125 367.5348205566406 C -13432.62890625 371.5758666992188 -13435.357421875 377.0663452148438 -13435.9052734375 382.9949340820313 L -13471.1103515625 382.9948120117188 C -13471.658203125 377.0656433105469 -13474.38671875 371.5755004882813 -13478.7939453125 367.5348205566406 C -13483.2294921875 363.4688110351563 -13488.9873046875 361.2296447753906 -13495.0078125 361.2296447753906 C -13501.0283203125 361.2296447753906 -13506.7861328125 363.4688110351563 -13511.2216796875 367.5348205566406 C -13515.6298828125 371.5762329101563 -13518.3583984375 377.0666809082031 -13518.9052734375 382.9949340820313 L -13554.111328125 382.9948120117188 C -13554.658203125 377.0666809082031 -13557.38671875 371.5765686035156 -13561.794921875 367.5348205566406 C -13566.23046875 363.4688110351563 -13571.98828125 361.2296447753906 -13578.0087890625 361.2296447753906 C -13584.029296875 361.2296447753906 -13589.787109375 363.4688110351563 -13594.2216796875 367.5348205566406 C -13598.62890625 371.5746765136719 -13601.3583984375 377.0652770996094 -13601.90625 382.9949340820313 L -13619 382.9948120117188 L -13619 -534.999755859375 L -13601.5341796875 -534.999755859375 C -13599.2890625 -523.8554077148438 -13589.3955078125 -515.7672119140625 -13578.0087890625 -515.7672119140625 C -13566.6220703125 -515.7672119140625 -13556.728515625 -523.8556518554688 -13554.4833984375 -534.9998779296875 L -13518.533203125 -534.999755859375 C -13516.2880859375 -523.8554077148438 -13506.39453125 -515.7672119140625 -13495.0078125 -515.7672119140625 C -13483.62109375 -515.7672119140625 -13473.7275390625 -523.8556518554688 -13471.482421875 -534.9998779296875 L -13435.533203125 -534.999755859375 C -13433.287109375 -523.8554077148438 -13423.3935546875 -515.7672119140625 -13412.0068359375 -515.7672119140625 C -13400.6240234375 -515.7672119140625 -13390.73046875 -523.8556518554688 -13388.4814453125 -534.9998779296875 L -13352.5322265625 -534.999755859375 C -13350.2861328125 -523.8554077148438 -13340.3935546875 -515.7672119140625 -13329.009765625 -515.7672119140625 C -13317.623046875 -515.7672119140625 -13307.7294921875 -523.8556518554688 -13305.484375 -534.9998779296875 L -13279.0087890625 -534.999755859375 L -13269.53515625 -534.999755859375 C -13267.2890625 -523.8554077148438 -13257.3955078125 -515.7672119140625 -13246.0087890625 -515.7672119140625 C -13234.623046875 -515.7672119140625 -13224.7294921875 -523.8556518554688 -13222.4833984375 -534.9998779296875 L -13186.5341796875 -534.999755859375 C -13184.2880859375 -523.8554077148438 -13174.39453125 -515.7672119140625 -13163.0087890625 -515.7672119140625 C -13151.6220703125 -515.7672119140625 -13141.728515625 -523.8556518554688 -13139.4833984375 -534.9998779296875 L -13103.533203125 -534.999755859375 C -13101.2880859375 -523.8554077148438 -13091.39453125 -515.7672119140625 -13080.0078125 -515.7672119140625 C -13068.623046875 -515.7672119140625 -13058.7275390625 -523.8556518554688 -13056.478515625 -534.9998779296875 L -13020.5322265625 -534.999755859375 C -13018.287109375 -523.8554077148438 -13008.3955078125 -515.7672119140625 -12997.0107421875 -515.7672119140625 C -12985.6240234375 -515.7672119140625 -12975.73046875 -523.8556518554688 -12973.4853515625 -534.9998779296875 L -12955.017578125 -534.999755859375 L -12955.017578125 382.9949340820313 L -12955.017578125 382.9959716796875 Z" stroke="none" fill="#707070"/>
  </g>
</svg>
