<svg xmlns="http://www.w3.org/2000/svg" width="681.341" height="355" viewBox="0 0 681.341 355">
  <g id="Group_181" data-name="Group 181" transform="translate(-405 -395)">
    <g id="Group_170" data-name="Group 170" transform="translate(-171 52)">
      <text id="T" transform="translate(719 609)" fill="#363636" font-size="253" font-family="Poppins-MediumItalic, Poppins" font-weight="500" font-style="italic"><tspan x="-142.692" y="0">T</tspan></text>
      <text id="i" transform="translate(746 609)" fill="#363636" font-size="181" font-family="Poppins-MediumItalic, Poppins" font-weight="500" font-style="italic"><tspan x="-47.784" y="0">i</tspan></text>
      <text id="r" transform="translate(1029 608)" fill="#363636" font-size="200" font-family="Poppins-MediumItalic, Poppins" font-weight="500" font-style="italic"><tspan x="-76.8" y="0">r</tspan></text>
      <text id="t-2" data-name="t" transform="translate(1211.171 608.5)" fill="#363636" font-size="200" font-family="Poppins-MediumItalic, Poppins" font-weight="500" font-style="italic"><tspan x="-74.4" y="0">t</tspan></text>
      <text id="e" transform="translate(1149.342 608)" fill="#363636" font-size="200" font-family="Poppins-MediumItalic, Poppins" font-weight="500" font-style="italic"><tspan x="-123.4" y="0">e</tspan></text>
      <circle id="Ellipse_7" data-name="Ellipse 7" cx="11" cy="11" r="11" transform="translate(1207 422.442) rotate(-9)" fill="#a7512d"/>
      <circle id="Ellipse_6" data-name="Ellipse 6" cx="11" cy="11" r="11" transform="translate(1232.171 440.729) rotate(-9)" fill="#a7512d"/>
    </g>
    <g id="Group_171" data-name="Group 171">
      <path id="Path_3781" data-name="Path 3781" d="M799.892,529.792s-19.676-4.254-30.467,3.566S755.4,591.633,771,606.181s41.347,11.51,53.2,0,70.888-133.051,73.2-134.661,12.218-4.153,17.759,0S922.1,609.576,922.1,609.576" transform="translate(-162 45.695)" fill="none" stroke="#df0b0b" stroke-linecap="round" stroke-width="14"/>
      <path id="Path_3782" data-name="Path 3782" d="M2866.238-665.574c-2.765-.691-26.635,0-26.635,0" transform="translate(-2110 1249)" fill="none" stroke="#df0b0b" stroke-linecap="round" stroke-width="14"/>
    </g>
  </g>
</svg>
